<svg viewBox="0 0 364 364" fill="currentColor" xmlns="http://www.w3.org/2000/svg">
  <path d="M341.812 0.354594C336.175 0.48765 330.819 2.84706 326.917 6.91709L182 151.834L37.0832 6.91709C35.0927 4.87097 32.7118 3.24508 30.0816 2.13574C27.4514 1.02639 24.6253 0.456141 21.7707 0.458761C17.5286 0.464015 13.3843 1.73375 9.86731 4.10576C6.35031 6.47777 3.62025 9.84437 2.02589 13.7755C0.431526 17.7066 0.0452406 22.0238 0.916378 26.1755C1.78751 30.3272 3.87653 34.125 6.91655 37.0838L151.833 182L6.91655 326.917C4.86911 328.883 3.23448 331.237 2.10839 333.843C0.982309 336.448 0.387406 339.252 0.358526 342.09C0.329646 344.929 0.867367 347.744 1.9402 350.372C3.01304 353 4.59942 355.387 6.60644 357.394C8.61345 359.401 11.0008 360.987 13.6285 362.06C16.2563 363.133 19.0718 363.671 21.91 363.642C24.7482 363.613 27.5521 363.018 30.1575 361.892C32.7629 360.766 35.1174 359.131 37.0832 357.084L182 212.167L326.917 357.084C328.882 359.131 331.237 360.766 333.842 361.892C336.448 363.018 339.252 363.613 342.09 363.642C344.928 363.671 347.743 363.133 350.371 362.06C352.999 360.987 355.386 359.401 357.393 357.394C359.4 355.387 360.987 353 362.06 350.372C363.132 347.744 363.67 344.929 363.641 342.09C363.612 339.252 363.017 336.448 361.891 333.843C360.765 331.237 359.131 328.883 357.083 326.917L212.167 182L357.083 37.0838C360.188 34.1071 362.32 30.2617 363.2 26.0519C364.081 21.8421 363.668 17.4645 362.017 13.4932C360.366 9.52194 357.553 6.14237 353.948 3.79776C350.342 1.45314 346.112 0.252953 341.812 0.354594Z" />
</svg>